<?xml version="1.0" encoding="UTF-8" standalone="no"?>
<svg width="800" height="600" viewBox="0 0 800 600" xmlns="http://www.w3.org/2000/svg">
  <!-- Background gradient -->
  <defs>
    <linearGradient id="bg-gradient" x1="0%" y1="0%" x2="100%" y2="100%">
      <stop offset="0%" style="stop-color:#4361ee;stop-opacity:0.1" />
      <stop offset="100%" style="stop-color:#3f8f68;stop-opacity:0.1" />
    </linearGradient>
    
    <!-- DNA Helix pattern -->
    <pattern id="dna-pattern" x="0" y="0" width="60" height="60" patternUnits="userSpaceOnUse">
      <path d="M10,0 C20,10 40,10 50,0 C60,10 80,10 90,0 M0,20 C10,30 30,30 40,20 C50,30 70,30 80,20 M10,40 C20,50 40,50 50,40 C60,50 80,50 90,40 M0,60 C10,70 30,70 40,60 C50,70 70,70 80,60" 
            stroke="#4361ee" stroke-width="2" fill="none" stroke-opacity="0.3" />
    </pattern>
  </defs>
  
  <!-- Background rectangle -->
  <rect width="800" height="600" fill="url(#bg-gradient)" />
  
  <!-- DNA Helix Background -->
  <rect width="800" height="600" fill="url(#dna-pattern)" opacity="0.2" />
  
  <!-- Central DNA Double Helix -->
  <g transform="translate(400, 300) rotate(-30)">
    <!-- First strand -->
    <path d="M-150,-200 C-120,-160 120,-160 150,-120 C180,-80 -120,-80 -90,-40 C-60,0 120,0 150,40 C180,80 -120,80 -90,120 C-60,160 120,160 150,200" 
          stroke="#4361ee" stroke-width="6" fill="none" />
          
    <!-- Second strand -->
    <path d="M-150,-120 C-120,-80 120,-80 150,-40 C180,0 -120,0 -90,40 C-60,80 120,80 150,120 C180,160 -120,160 -90,200 C-60,240 120,240 150,280" 
          stroke="#3f8f68" stroke-width="6" fill="none" />
          
    <!-- DNA base pairs -->
    <line x1="-150" y1="-200" x2="-150" y2="-120" stroke="#6e84a3" stroke-width="4" />
    <line x1="150" y1="-120" x2="150" y2="-40" stroke="#6e84a3" stroke-width="4" />
    <line x1="-90" y1="-40" x2="-90" y2="40" stroke="#6e84a3" stroke-width="4" />
    <line x1="150" y1="40" x2="150" y2="120" stroke="#6e84a3" stroke-width="4" />
    <line x1="-90" y1="120" x2="-90" y2="200" stroke="#6e84a3" stroke-width="4" />
    <line x1="150" y1="200" x2="150" y2="280" stroke="#6e84a3" stroke-width="4" />
  </g>
  
  <!-- Circular genome/data visualization -->
  <g transform="translate(400, 300)">
    <!-- Circular genome -->
    <circle cx="0" cy="0" r="180" fill="none" stroke="#4361ee" stroke-width="8" stroke-opacity="0.15" />
    
    <!-- Genome data lines -->
    <g>
      <line x1="0" y1="0" x2="156" y2="90" stroke="#4361ee" stroke-width="3" />
      <circle cx="156" cy="90" r="5" fill="#4361ee" />
    </g>
    
    <g>
      <line x1="0" y1="0" x2="90" y2="156" stroke="#3f8f68" stroke-width="3" />
      <circle cx="90" cy="156" r="5" fill="#3f8f68" />
    </g>
    
    <g>
      <line x1="0" y1="0" x2="0" y2="180" stroke="#4361ee" stroke-width="3" />
      <circle cx="0" cy="180" r="5" fill="#4361ee" />
    </g>
    
    <g>
      <line x1="0" y1="0" x2="-90" y2="156" stroke="#3f8f68" stroke-width="3" />
      <circle cx="-90" cy="156" r="5" fill="#3f8f68" />
    </g>
    
    <g>
      <line x1="0" y1="0" x2="-156" y2="90" stroke="#4361ee" stroke-width="3" />
      <circle cx="-156" cy="90" r="5" fill="#4361ee" />
    </g>
    
    <g>
      <line x1="0" y1="0" x2="-180" y2="0" stroke="#3f8f68" stroke-width="3" />
      <circle cx="-180" cy="0" r="5" fill="#3f8f68" />
    </g>
    
    <g>
      <line x1="0" y1="0" x2="-156" y2="-90" stroke="#4361ee" stroke-width="3" />
      <circle cx="-156" cy="-90" r="5" fill="#4361ee" />
    </g>
    
    <g>
      <line x1="0" y1="0" x2="-90" y2="-156" stroke="#3f8f68" stroke-width="3" />
      <circle cx="-90" cy="-156" r="5" fill="#3f8f68" />
    </g>
    
    <g>
      <line x1="0" y1="0" x2="0" y2="-180" stroke="#4361ee" stroke-width="3" />
      <circle cx="0" cy="-180" r="5" fill="#4361ee" />
    </g>
    
    <g>
      <line x1="0" y1="0" x2="90" y2="-156" stroke="#3f8f68" stroke-width="3" />
      <circle cx="90" cy="-156" r="5" fill="#3f8f68" />
    </g>
    
    <g>
      <line x1="0" y1="0" x2="156" y2="-90" stroke="#4361ee" stroke-width="3" />
      <circle cx="156" cy="-90" r="5" fill="#4361ee" />
    </g>
    
    <g>
      <line x1="0" y1="0" x2="180" y2="0" stroke="#3f8f68" stroke-width="3" />
      <circle cx="180" cy="0" r="5" fill="#3f8f68" />
    </g>
  </g>
  
  <!-- Molecular structures -->
  <g transform="translate(600, 150)">
    <!-- Hexagon -->
    <polygon points="0,20 17.3,10 17.3,-10 0,-20 -17.3,-10 -17.3,10" fill="none" stroke="#4361ee" stroke-width="3" />
    <circle cx="0" cy="0" r="5" fill="#4361ee" />
    
    <!-- Bond to another structure -->
    <line x1="17.3" y1="10" x2="40" y2="30" stroke="#4361ee" stroke-width="3" />
    
    <!-- Another hexagon -->
    <polygon points="40,50 57.3,40 57.3,20 40,10 22.7,20 22.7,40" fill="none" stroke="#4361ee" stroke-width="3" />
    <circle cx="40" cy="30" r="5" fill="#4361ee" />
  </g>
  
  <g transform="translate(200, 450)">
    <!-- Hexagon -->
    <polygon points="0,20 17.3,10 17.3,-10 0,-20 -17.3,-10 -17.3,10" fill="none" stroke="#3f8f68" stroke-width="3" />
    <circle cx="0" cy="0" r="5" fill="#3f8f68" />
    
    <!-- Bond to another structure -->
    <line x1="-17.3" y1="-10" x2="-40" y2="-30" stroke="#3f8f68" stroke-width="3" />
    
    <!-- Another hexagon -->
    <polygon points="-40,-50 -57.3,-40 -57.3,-20 -40,-10 -22.7,-20 -22.7,-40" fill="none" stroke="#3f8f68" stroke-width="3" />
    <circle cx="-40" cy="-30" r="5" fill="#3f8f68" />
  </g>
  
  <!-- Text elements for "Precision Medicine" -->
  <g transform="translate(400, 100)">
    <text x="0" y="0" font-family="Arial, sans-serif" font-size="40" font-weight="bold" text-anchor="middle" fill="#12263f">
      Precision Medicine
    </text>
    <text x="0" y="30" font-family="Arial, sans-serif" font-size="20" text-anchor="middle" fill="#12263f">
      Genomic Analysis with AI
    </text>
  </g>
</svg>